<svg width="0" height="0"><symbol xmlns="http://www.w3.org/2000/svg" id="google-auth" style="display:block" viewBox="0 0 48 48"><path fill="#EA4335" d="M24 9.5c3.54 0 6.71 1.22 9.21 3.6l6.85-6.85C35.9 2.38 30.47 0 24 0 14.62 0 6.51 5.38 2.56 13.22l7.98 6.19C12.43 13.72 17.74 9.5 24 9.5"/><path fill="#4285F4" d="M46.98 24.55c0-1.57-.15-3.09-.38-4.55H24v9.02h12.94c-.58 2.96-2.26 5.48-4.78 7.18l7.73 6c4.51-4.18 7.09-10.36 7.09-17.65"/><path fill="#FBBC05" d="M10.53 28.59c-.48-1.45-.76-2.99-.76-4.59s.27-3.14.76-4.59l-7.98-6.19C.92 16.46 0 20.12 0 24s.92 7.54 2.56 10.78z"/><path fill="#34A853" d="M24 48c6.48 0 11.93-2.13 15.89-5.81l-7.73-6c-2.15 1.45-4.92 2.3-8.16 2.3-6.26 0-11.57-4.22-13.47-9.91l-7.98 6.19C6.51 42.62 14.62 48 24 48"/><path fill="none" d="M0 0h48v48H0z"/></symbol><symbol xmlns="http://www.w3.org/2000/svg" id="yandex-auth" fill="none" viewBox="0 0 44 44"><rect width="44" height="44" fill="#FC3F1D" rx="22"/><path fill="#fff" d="M25.244 12.32h-2.227c-3.816 0-5.725 1.91-5.725 4.772 0 3.18 1.272 4.771 4.135 6.68l2.227 1.59-6.362 9.86h-5.09l6.044-8.906c-3.498-2.545-5.407-4.771-5.407-8.906 0-5.09 3.499-8.588 10.178-8.588h6.68v26.4h-4.453z"/></symbol></svg>